<svg width="206" height="206" viewBox="0 0 206 206" fill="none" xmlns="http://www.w3.org/2000/svg">
<g clip-path="url(#clip0_1_3449)">
<path style="mix-blend-mode:screen" d="M181.13 105C181.13 60.7466 145.255 24.8722 101.002 24.8722C56.7484 24.8722 20.8739 60.7466 20.8739 105C20.8739 149.253 56.7484 185.128 101.002 185.128C145.255 185.128 181.13 149.253 181.13 105Z" fill="url(#paint0_radial_1_3449)"/>
<path style="mix-blend-mode:screen" d="M145.5 149.5C170.077 124.923 170.077 85.0767 145.5 60.5C120.923 35.9233 81.0767 35.9233 56.5 60.5C31.9233 85.0767 31.9233 124.923 56.5 149.5C81.0767 174.077 120.923 174.077 145.5 149.5Z" fill="url(#paint1_radial_1_3449)"/>
<path style="mix-blend-mode:screen" d="M143.466 147.465C166.918 124.012 166.918 85.9878 143.466 62.5351C120.013 39.0824 81.9886 39.0824 58.5359 62.5351C35.0832 85.9878 35.0832 124.012 58.5359 147.465C81.9886 170.918 120.013 170.918 143.466 147.465Z" fill="url(#paint2_radial_1_3449)"/>
<path fill-rule="evenodd" clip-rule="evenodd" d="M155.47 104.045C155.476 111.195 154.073 118.276 151.339 124.882C148.605 131.489 144.596 137.491 139.539 142.547C134.483 147.602 128.48 151.61 121.873 154.342C115.266 157.075 108.185 158.477 101.035 158.469C100.07 158.469 99.0934 158.446 98.1393 158.388H98.1281C96.7034 158.32 95.2899 158.182 93.9003 158.008C83.6527 156.667 74.004 152.417 66.0971 145.762C60.9966 141.469 56.7115 136.291 53.4471 130.478C53.1137 129.881 52.7914 129.272 52.4707 128.662C52.4707 128.64 52.4596 128.629 52.4468 128.605C52.115 127.951 51.8086 127.295 51.5055 126.63H51.4944C50.5416 124.541 49.7278 122.392 49.0582 120.196C48.5492 118.595 48.1232 116.969 47.7819 115.325C47.7731 115.311 47.7692 115.295 47.7707 115.279C47.5282 114.117 47.3224 112.946 47.1612 111.769C46.7908 109.212 46.6063 106.632 46.6092 104.048C46.6092 102.544 46.6666 101.038 46.8054 99.5686C46.874 98.6257 46.9778 97.6956 47.1038 96.7639C47.792 91.5092 49.2593 86.3865 51.4576 81.5644C55.7825 72.0419 62.7569 63.9656 71.5479 58.2999C80.3388 52.6341 90.5749 49.6185 101.033 49.6131C101.608 49.6131 102.182 49.6243 102.745 49.6371C103.353 49.6594 103.963 49.6817 104.572 49.728C107.65 49.9275 110.706 50.3886 113.706 51.1064C115.429 51.5213 117.118 52.0031 118.773 52.5774C119.89 52.9571 121.006 53.3751 122.093 53.841C122.908 54.1856 123.701 54.543 124.486 54.9211C124.623 54.9897 124.762 55.0471 124.899 55.1173C130.154 57.6863 134.96 61.0844 139.135 65.1811C139.732 65.7555 140.306 66.3522 140.88 66.9616C141.26 67.3748 141.638 67.8008 142.007 68.2252C142.645 68.9383 143.248 69.685 143.845 70.4316C148.6 76.4762 152.015 83.4628 153.864 90.9279C154.931 95.2186 155.471 99.6237 155.47 104.045Z" fill="url(#paint3_radial_1_3449)"/>
<g style="mix-blend-mode:multiply" opacity="0.4">
<path fill-rule="evenodd" clip-rule="evenodd" d="M46.604 104.045C46.604 104.045 59.439 126.82 71.8481 130.352C84.2572 133.884 98.426 131.639 103.27 133.444C108.113 135.248 110.747 142.648 110.747 142.648L112.552 143.682C112.552 143.682 116.692 137.254 119.227 141.051C119.227 141.051 118.217 135.669 121.263 129.117C124.308 122.565 126.344 115.527 130.116 113.278C133.887 111.028 140.792 109.983 146.264 112.161C151.737 114.339 154.572 113.916 154.572 113.916L154.98 111.338L155.39 109.064C155.39 109.064 150.152 109.897 145.939 107.203C145.939 107.203 146.516 108.209 149.781 102.113C153.045 96.0171 152.668 90.5177 152.668 90.5177L152.199 85.4539C152.199 85.4539 150.444 103.019 143.038 108.117C143.038 108.117 126.521 104.698 119.537 124.194C119.537 124.194 118.342 137.233 111.421 136.871C104.5 136.509 106.895 127.981 96.8801 127.893C86.8657 127.806 80.7904 131.923 70.8749 126.269C60.9595 120.615 46.604 104.045 46.604 104.045Z" fill="#7D72B3"/>
</g>
<g style="mix-blend-mode:multiply" opacity="0.4">
<path fill-rule="evenodd" clip-rule="evenodd" d="M98.1375 158.387C98.1375 158.387 104.998 148.135 112.554 148.191C120.109 148.247 123.586 150.988 129.537 147.514C135.488 144.041 137.96 141.87 140.705 140.016C143.449 138.162 143.911 137.573 143.911 137.573L145.149 135.936C145.149 135.936 140.977 133.912 137.3 136.886C133.623 139.86 126.978 146.591 121.695 146.557C116.413 146.524 116.678 143.488 110.749 145.868C104.821 148.248 92.3381 156.662 92.3381 156.662C92.3381 156.662 94.5988 158.314 98.1375 158.387Z" fill="#7D72B3"/>
</g>
<g style="mix-blend-mode:multiply" opacity="0.4">
<path fill-rule="evenodd" clip-rule="evenodd" d="M49.6008 121.873L50.2549 123.669C50.2549 123.669 60.8675 129.527 67.5698 137.683C74.2721 145.839 75.464 151.362 75.464 151.362C75.464 151.362 76.6557 146.503 70.8803 137.362C65.1049 128.222 52.6703 123.213 49.6008 121.873Z" fill="#7D72B3"/>
</g>
<path fill-rule="evenodd" clip-rule="evenodd" d="M124.904 55.1173C124.724 55.133 124.545 55.158 124.367 55.1923C123.8 55.2968 123.216 55.2578 122.668 55.079C122.234 54.9562 121.921 54.7775 121.458 54.7009C120.798 54.5972 120.182 54.3148 119.523 54.2223C118.824 54.1282 118.221 53.8553 117.559 53.6192C117.041 53.4294 116.762 53.4964 116.267 53.6192C115.772 53.7421 115.417 53.5426 114.973 53.3544C114.472 53.1374 113.973 53.0991 113.443 52.9954C112.065 52.713 110.696 52.2679 109.327 51.9185C108.477 51.7015 107.693 51.7015 106.825 51.692C106.146 51.684 105.531 51.8818 104.852 51.8818C104.418 51.8669 103.985 51.8194 103.558 51.7398C103.095 51.6553 102.623 51.7494 102.16 51.684C101.471 51.5787 101.103 51.475 100.405 51.692C99.8853 51.8627 99.48 51.8435 98.9599 51.8722C98.3544 51.9246 97.7544 52.0287 97.1667 52.1833C96.1257 52.4451 95.0572 52.5817 93.9838 52.5902C93.3457 52.5902 92.398 52.4099 91.7854 52.6269C91.3881 52.7689 91.1903 53.1932 90.9159 53.4772C90.3878 54.0245 89.7353 54.5158 89.2918 55.1301C88.8482 55.7443 88.3473 56.3761 88.3856 57.1499C88.4239 57.8199 88.735 58.6033 89.0237 59.2239C89.3253 59.8748 89.4289 60.4699 88.7589 60.9039C87.906 61.4877 86.9702 61.9401 85.9829 62.2456C85.3447 62.4339 84.7656 62.5471 84.2279 62.0861C84.0301 61.9169 83.9088 61.5851 83.6615 61.4479C83.4143 61.3107 83.143 61.4479 82.8638 61.5324C82.1988 61.7522 81.5211 61.9317 80.8345 62.0701C80.4085 62.1371 80.0368 62.3637 79.6252 62.4386C79.1258 62.5328 78.7668 62.1642 78.2467 62.2871C77.5208 62.4578 76.7933 62.7657 76.0387 62.7976C75.4994 62.8263 74.8198 62.5902 74.3667 62.319C74.1019 62.1674 74.0364 62.0174 73.7285 62.102C73.4332 62.2107 73.1745 62.4004 72.9819 62.6492C72.8032 62.9045 72.7362 63.2347 72.5575 63.4996C72.3676 63.7915 72.189 64.0755 72.0183 64.3866C71.7058 64.9839 71.3462 65.5552 70.943 66.0953C70.659 66.4734 70.4643 66.9824 70.1452 67.3318C69.9857 67.5216 69.6347 67.6508 69.4273 67.7944C68.8609 68.1917 68.2659 68.5506 67.7186 68.975C66.6609 69.8062 65.6605 70.722 64.5836 71.5277C63.762 72.1419 62.6101 72.5009 61.6752 72.887C61.0897 73.1231 60.4866 73.2938 59.9011 73.5379C59.7113 73.6145 59.3619 73.6974 59.2023 73.841C58.9949 74.0197 58.8832 74.35 58.6918 74.5957C58.1829 75.2195 57.6436 75.8417 57.2559 76.5596C57.0372 76.9724 56.8597 77.4058 56.7262 77.8535C56.5188 78.4677 56.1886 79.0341 55.9812 79.6467C55.5568 80.931 55.4707 82.2712 54.9984 83.5459C54.7256 84.2925 54.3284 84.9722 53.9885 85.6518C53.403 86.8037 53.3185 88.1726 53.1478 89.4473C53.0597 90.2244 53.0855 91.0102 53.2243 91.7798C53.3663 92.5631 53.328 93.3752 53.3185 94.1729C53.3089 95.0217 52.7712 95.8529 52.232 96.4958C51.7422 97.0909 50.9956 97.3175 50.4483 97.8455C49.9857 98.2986 49.4288 98.8172 49.231 99.4601C49.1449 99.7425 49.2215 100.065 49.1736 100.366C49.0508 101.036 48.8816 101.67 48.7859 102.349C48.6936 103.174 48.6531 104.003 48.6646 104.832C48.6646 105.256 48.6359 105.692 48.6551 106.116C48.6742 106.541 48.8242 106.899 48.8529 107.306C48.8721 107.589 48.8146 107.873 48.8529 108.155C48.9088 108.474 49.0316 108.808 49.1082 109.112C49.2964 109.867 49.4384 110.604 49.5868 111.359C49.7176 112.057 49.992 112.747 50.209 113.433C50.4985 114.364 50.7256 115.314 50.8887 116.276C51.0307 116.992 51.0211 117.739 51.1248 118.466C51.2093 119.05 51.3418 119.645 51.3705 120.231C51.3992 121.118 51.1822 122.006 51.1727 122.903C51.1631 124.414 51.7677 125.925 52.1171 127.378C52.2208 127.783 52.3245 128.2 52.4362 128.605C48.2424 120.304 46.245 111.068 46.6343 101.776C47.0236 92.4841 49.7867 83.4469 54.6601 75.5261C59.5335 67.6053 66.3547 61.065 74.4733 56.5287C82.5919 51.9925 91.7372 49.6116 101.037 49.6131C102.227 49.6131 103.398 49.6498 104.568 49.7264C111.635 50.1703 118.545 52.0021 124.904 55.1173Z" fill="url(#paint4_linear_1_3449)"/>
<g style="mix-blend-mode:multiply" opacity="0.4">
<path fill-rule="evenodd" clip-rule="evenodd" d="M59.9175 73.5387C59.9175 73.5387 72.1702 84.4943 88.3349 84.8086C104.5 85.1229 110.511 84.0349 115.884 78.0489C121.258 72.0629 127.052 61.9193 127.052 61.9193C127.052 61.9193 120.147 65.2457 115.371 71.7486C110.594 78.2515 88.0318 89.3284 59.9175 73.5387Z" fill="#7D72B3"/>
</g>
<g opacity="0.7">
<g style="mix-blend-mode:multiply" opacity="0.4">
<path fill-rule="evenodd" clip-rule="evenodd" d="M60.8941 73.8515C59.2907 75.75 57.8931 77.6804 56.8146 79.9316C55.8574 81.929 55.5064 84.1546 55.1602 86.3132C54.956 87.5895 54.7741 88.885 54.5811 90.1709C54.4104 91.31 54.0801 92.513 54.2764 93.6664C54.5444 95.2299 54.6241 96.9546 55.374 98.3809C56.1373 99.8679 57.0407 101.279 58.0718 102.594C59.1136 103.915 60.3724 104.509 62.0604 104.627C62.9729 104.691 63.8807 104.55 64.7965 104.67C66.0632 104.837 67.3332 105.069 68.5968 105.271C71.1414 105.68 74.0004 105.699 75.8287 103.612C77.3124 101.919 78.0144 99.8088 78.9589 97.7938C79.964 95.6463 81.2308 93.8659 83.107 92.4077C84.4918 91.3355 85.7059 90.1294 87.0365 88.9983C87.6395 88.4845 88.0049 87.9293 88.6909 87.5449C89.3769 87.1604 89.7263 86.7471 90.315 86.2079C90.8431 85.7213 91.4861 85.3926 91.9567 84.8374C92.7066 83.9536 93.308 82.7634 93.7117 81.6897C94.1344 80.5617 94.3403 79.3652 94.5094 78.1798C94.6689 77.0183 94.3227 75.8521 93.9622 74.7449C93.2729 72.6374 91.4749 71.3148 89.7822 70.0065C87.6858 68.3888 85.2177 67.6708 82.6379 67.1635C80.2927 66.7024 77.4688 66.6083 75.1124 67.0263C72.6188 67.4666 70.0565 67.824 67.7336 68.9041C66.0361 69.6938 65.0103 70.7899 63.6398 71.9513C62.9426 72.5432 62.0971 72.95 61.4669 73.6169C60.5942 74.5439 59.7773 75.5458 60.8941 73.8515Z" fill="#7D72B3"/>
</g>
<g style="mix-blend-mode:multiply" opacity="0.4">
<path fill-rule="evenodd" clip-rule="evenodd" d="M85.5659 63.6914C85.9041 63.1011 86.2886 62.2556 86.7576 61.6972C87.0278 61.4109 87.3225 61.1488 87.6383 60.9138C88.5477 60.1512 89.5433 59.5051 90.6983 59.1732C91.3412 58.989 92.021 58.9764 92.6702 59.1365C93.318 59.2961 94.4922 59.746 94.99 60.2198C95.9153 61.1021 95.309 62.6129 95.0267 63.6324C94.7443 64.6519 94.4236 65.6506 93.4966 66.3063C92.8804 66.746 92.1856 67.0633 91.4498 67.2412C91.0477 67.3322 90.6409 67.305 90.234 67.3545C89.9114 67.4155 89.5854 67.4566 89.2577 67.4773C88.5062 67.4773 87.3623 66.9397 87.0464 66.201C86.8869 65.8165 86.788 65.4177 86.6141 65.03C86.4816 64.738 86.3779 64.4269 86.2551 64.1318C86.0238 63.5734 85.8179 63.0325 85.5659 63.6914Z" fill="#7D72B3"/>
</g>
<g style="mix-blend-mode:multiply" opacity="0.4">
<path fill-rule="evenodd" clip-rule="evenodd" d="M94.5635 69.4982C94.3419 70.0911 94.2185 70.7162 94.1982 71.3489C94.4774 71.5084 94.5747 71.8578 94.8491 72.019C95.1235 72.1801 95.4299 72.1115 95.7298 72.1099C96.2754 72.1099 96.8019 72.1099 96.8944 71.4446C96.9742 70.8575 96.4557 70.4299 96.0153 70.1109C95.6963 69.8811 95.0693 69.3451 94.7087 69.7918L94.5635 69.4982Z" fill="#7D72B3"/>
</g>
<g style="mix-blend-mode:multiply" opacity="0.4">
<path fill-rule="evenodd" clip-rule="evenodd" d="M102.113 78.3487C101.406 78.8529 100.643 79.306 99.9686 79.8436C99.1119 80.5233 98.4402 81.3896 97.7749 82.2495C96.9485 83.32 95.9753 84.44 96.1795 85.8806C96.3837 87.3213 96.864 88.4812 97.9536 89.4352C99.214 90.5392 101.162 90.5329 102.63 91.2476C103.884 91.8586 104.685 93.1222 105.313 94.3235C106.27 96.1471 108.27 96.471 110.099 96.8156C111.288 97.0389 112.465 97.2096 113.665 97.3564C115.278 97.5527 116.874 97.8622 118.49 98.0169C121.452 98.3025 124.441 98.9853 127.424 98.746C130.589 98.4924 133.458 97.3644 136.062 95.5552C138.281 94.0108 140.264 91.329 140.848 88.6726C141.462 85.8806 140.545 82.7696 139.193 80.3334C137.418 77.1794 135.383 74.1792 133.108 71.364C131.861 69.7957 130.414 68.3982 129.139 66.8474C128.055 65.5177 126.857 64.2856 125.557 63.1652C122.603 60.6237 118.933 58.5258 114.962 58.3168C113.441 58.2304 111.919 58.4664 110.495 59.0092C109.249 59.4878 108.348 60.2073 107.422 61.1598C105.072 63.5784 103.844 66.6576 102.826 69.8181C102.36 71.2667 101.925 72.9052 102.095 74.4448C102.148 74.9154 102.398 75.2887 102.392 75.7354C102.392 76.1518 102.392 76.5698 102.392 76.9878C102.417 77.2027 102.395 77.4204 102.328 77.626C102.194 77.9578 101.858 78.3088 102.113 78.3487Z" fill="#7D72B3"/>
</g>
<g style="mix-blend-mode:multiply" opacity="0.4">
<path fill-rule="evenodd" clip-rule="evenodd" d="M89.6297 89.0881C88.0949 89.9831 86.5203 90.6835 85.394 92.1194C85.1945 92.3746 84.8977 92.6602 85.0014 93.0048C85.1179 93.3845 85.5455 93.5999 85.8758 93.7371C87.0149 94.2157 88.4076 94.4614 89.6297 94.2157C90.7274 93.9988 92.1712 93.2585 92.7647 92.2614C93.5146 91.0026 92.6674 88.9796 91.0784 89.0801C90.8407 89.0961 90.6588 89.2109 90.4274 89.2397C90.2392 89.262 90.0366 89.2253 89.8451 89.2397C89.6885 89.2451 89.5357 89.289 89.4 89.3673C89.2086 89.4391 88.9565 89.6577 89.6297 89.0881Z" fill="#7D72B3"/>
</g>
<g style="mix-blend-mode:multiply" opacity="0.4">
<path fill-rule="evenodd" clip-rule="evenodd" d="M58.1399 110.131C57.5161 110.697 56.8939 111.131 56.5349 111.886C56.2048 112.565 55.9584 113.283 55.8011 114.022C55.6607 114.681 55.482 115.384 55.6415 116.058C55.7915 116.661 56.0755 117.26 56.2797 117.851C56.5581 118.597 56.7868 119.361 56.9641 120.137C57.1699 121.125 57.5352 121.967 57.9756 122.875C58.4096 123.762 58.8944 124.624 59.4274 125.456C59.9762 126.321 60.6128 127 61.3211 127.739C63.802 130.324 66.8349 133.061 70.5346 133.527C72.4044 133.762 74.3524 133.282 75.7181 131.941C77.2114 130.477 78.1639 128.368 78.4814 126.311C78.7526 124.556 78.5739 122.747 77.6262 121.225C76.8716 120.011 76.0468 118.706 75.0736 117.655C74.4147 116.945 73.6553 116.335 72.9389 115.687C72.2226 115.04 71.5429 114.363 70.7644 113.794C69.3987 112.795 68.0793 111.744 66.7041 110.762C65.4596 109.866 64.1163 108.891 62.5959 108.529C61.5477 108.277 60.399 108.068 59.3636 108.471C58.92 108.645 58.5787 108.79 58.3537 109.2C58.242 109.4 57.9804 109.744 57.9644 109.973C57.9277 109.968 57.8878 109.977 58.1399 110.131Z" fill="#7D72B3"/>
</g>
<g style="mix-blend-mode:multiply" opacity="0.4">
<path fill-rule="evenodd" clip-rule="evenodd" d="M67.8612 107.662C67.9122 108.099 67.9617 108.538 68.0127 108.975C68.043 109.117 68.075 109.261 68.1053 109.403C68.1914 109.494 68.5201 109.532 68.635 109.546C69.0785 109.597 69.5587 109.36 69.9113 109.088C70.4426 108.675 70.6819 107.712 70.1905 107.22C70.0047 107.031 69.7735 106.893 69.5189 106.819C69.2644 106.746 68.9951 106.739 68.7371 106.799C68.4515 106.856 67.2406 107.495 67.7208 107.952L67.8612 107.662Z" fill="#7D72B3"/>
</g>
<g style="mix-blend-mode:multiply" opacity="0.4">
<path fill-rule="evenodd" clip-rule="evenodd" d="M140.715 95.7647C140.904 94.7899 140.925 94.1692 141.523 93.4385C142.045 92.8004 142.616 92.2149 143.119 91.5671C144.036 90.377 144.604 88.973 144.947 87.5148C145.25 86.2273 144.934 84.9749 145.51 83.7321C145.648 83.4369 145.809 82.8753 146.12 82.7334C146.407 82.6025 146.986 82.7126 147.246 82.8674C147.506 83.0221 147.779 83.3651 148.001 83.5614C148.387 83.92 148.755 84.2986 149.102 84.6957C150.916 86.6708 151.918 89.6159 151.905 92.2771C151.895 93.8374 151.728 95.2828 151.209 96.7442C151.015 97.3264 150.764 97.8876 150.458 98.4194C150.064 99.0863 149.575 99.4867 148.929 99.9C147.05 101.101 144.32 100.653 142.75 99.1677C142.168 98.6172 141.9 97.861 141.52 97.2149C141.222 96.7075 140.941 96.2465 140.834 95.6418C140.793 95.637 140.753 95.6274 140.715 95.7647Z" fill="#7D72B3"/>
</g>
<g style="mix-blend-mode:multiply" opacity="0.4">
<path fill-rule="evenodd" clip-rule="evenodd" d="M140.713 75.3012C141.032 76.3637 141.18 77.5204 142.268 78.0692C142.52 78.1955 142.789 78.2826 143.066 78.3277C143.34 78.3404 143.545 78.1841 143.755 78.0261C144.898 77.187 144.234 75.2613 143.468 74.3918C143.015 73.8797 142.492 73.7122 141.863 73.5255C141.576 73.4409 141.646 73.417 141.402 73.5255C141.235 73.585 141.093 73.697 140.995 73.8446C140.902 74.0263 140.852 74.2273 140.85 74.4317C140.83 74.5916 140.794 74.7489 140.74 74.9007C140.659 75.2313 140.699 75.58 140.853 75.8835L140.713 75.3012Z" fill="#7D72B3"/>
</g>
<g style="mix-blend-mode:multiply" opacity="0.4">
<path fill-rule="evenodd" clip-rule="evenodd" d="M132.152 119.564C131.871 120.286 131.651 121.041 131.332 121.746C130.993 122.496 130.655 123.254 130.336 124.013C129.499 126.017 129.03 128.098 128.489 130.191C127.93 132.395 127.541 134.639 127.327 136.903C127.211 138.067 127.03 139.189 127.062 140.366C127.086 141.201 127.082 142.222 127.381 143.018C127.565 143.512 128.029 144.267 128.546 144.49C129.221 144.781 130.075 144.216 130.642 143.935C132.863 142.836 134.749 141.166 136.512 139.446C138.248 137.753 140.012 136.148 141.458 134.181C142.112 133.284 142.839 132.4 143.388 131.434C143.846 130.626 144.159 129.746 144.577 128.918C144.968 128.142 145.252 127.322 145.62 126.536C146.078 125.582 146.469 124.597 146.791 123.589C147.386 121.659 147.908 119.688 147.236 117.686C146.958 116.85 146.467 116.1 145.813 115.509C145.158 114.919 144.362 114.508 143.501 114.316C142.552 114.112 141.485 113.838 140.508 113.906C139.521 113.995 138.553 114.232 137.637 114.61C136.85 114.925 136.092 115.306 135.37 115.749C134.971 115.998 134.701 116.344 134.385 116.684C133.839 117.252 133.351 117.873 132.927 118.538C132.737 118.836 132.518 119.115 132.273 119.369C131.903 119.778 131.748 120.382 132.152 119.564Z" fill="#7D72B3"/>
</g>
<g style="mix-blend-mode:multiply" opacity="0.4">
<path fill-rule="evenodd" clip-rule="evenodd" d="M123.588 144.677C122.437 145.111 121.479 145.531 120.497 146.26C119.319 147.134 118.223 148.031 117.381 149.237C117.073 149.679 116.457 150.437 116.918 150.958C117.32 151.411 117.969 151.372 118.513 151.36C119.31 151.351 120.098 151.192 120.836 150.893C121.521 150.606 122.14 150.229 122.847 149.985C123.525 149.752 124.442 149.302 124.905 148.718C125.165 148.387 125.316 147.93 125.556 147.574C125.65 147.452 125.718 147.311 125.755 147.161C125.792 147.011 125.797 146.854 125.771 146.702C125.702 146.223 125.486 145.777 125.154 145.425C124.871 145.167 124.332 144.909 123.954 144.956C123.734 144.986 123.52 145.044 123.316 145.129C122.853 145.327 122.48 145.896 123.588 144.677Z" fill="#7D72B3"/>
</g>
<g style="mix-blend-mode:multiply" opacity="0.4">
<path fill-rule="evenodd" clip-rule="evenodd" d="M122.141 137.995C121.905 137.129 121.638 136.446 121.715 135.576C121.782 134.79 121.772 134.124 122.185 133.413C122.359 133.113 122.863 132.165 123.202 132.046C123.391 132.013 123.585 132.009 123.776 132.034C124.363 132.111 124.716 132.832 124.837 133.362C125.024 134.175 124.894 135.133 124.901 135.965C124.918 136.6 124.805 137.232 124.57 137.823C124.373 138.314 123.98 138.301 123.482 138.287C122.985 138.272 122.792 138.127 122.431 137.845C122.299 137.741 122.112 137.703 121.984 137.599C121.823 137.457 121.877 137.263 122.141 137.995Z" fill="#7D72B3"/>
</g>
<g style="mix-blend-mode:multiply" opacity="0.4">
<path fill-rule="evenodd" clip-rule="evenodd" d="M121.122 103.599C121.021 104.2 120.979 104.808 120.996 105.417C121.216 105.417 121.445 105.823 121.731 105.895C122.133 105.996 122.551 105.747 122.862 105.496C123.548 104.949 123.736 103.911 123.583 103.091C123.43 102.27 122.508 102.207 121.844 102.293C121.58 102.324 121.328 102.423 121.114 102.58C120.71 102.937 120.675 103.37 120.686 103.893L121.122 103.599Z" fill="#7D72B3"/>
</g>
<g style="mix-blend-mode:multiply" opacity="0.4">
<path fill-rule="evenodd" clip-rule="evenodd" d="M69.1672 141.043C69.5373 140.405 69.858 139.706 70.3335 139.14C70.877 138.478 71.4632 137.853 72.0884 137.268C72.851 136.573 73.7349 135.931 74.5517 135.299C75.3095 134.712 76.0849 134.141 76.897 133.632C78.3153 132.744 79.7783 132.158 81.3514 131.614C82.6215 131.152 83.993 131.042 85.3207 131.295C86.6912 131.576 88.0217 132.348 89.03 133.3C89.9969 134.216 91.0132 135.328 91.6082 136.533C92.8255 138.993 92.3549 141.66 91.5221 144.159C91.1504 145.276 90.375 146.609 89.4401 147.334C88.9011 147.738 88.2804 148.019 87.6213 148.158C86.8826 148.318 86.0435 148.576 85.2968 148.672C82.0166 149.087 78.6535 148.849 75.5377 147.702C74.3044 147.249 73.0951 146.692 71.9129 146.118C70.9883 145.695 70.1822 145.051 69.566 144.242C69.1034 143.618 68.7077 142.876 68.7317 142.083C68.7428 141.727 68.8625 141.408 68.9072 141.064C69.0555 141.06 69.1847 140.965 69.1672 141.043Z" fill="#7D72B3"/>
</g>
<g style="mix-blend-mode:multiply" opacity="0.4">
<path fill-rule="evenodd" clip-rule="evenodd" d="M93.8411 142.492C93.6126 143.087 93.4661 143.709 93.4055 144.343C93.6273 144.471 93.6145 144.836 93.7804 145.039C93.858 145.145 93.9585 145.233 94.0745 145.295C94.1904 145.358 94.319 145.393 94.4505 145.399C94.7587 145.424 95.0685 145.419 95.3758 145.385C95.8257 145.315 95.9247 145.149 96.1576 144.817C96.4192 144.445 96.4878 144.284 96.4559 143.791C96.4444 143.442 96.3337 143.104 96.1368 142.816C95.9805 142.599 95.7971 142.403 95.5912 142.232C95.1621 141.923 94.8398 142.098 94.4282 142.349L93.8411 142.492Z" fill="#7D72B3"/>
</g>
<g style="mix-blend-mode:multiply" opacity="0.4">
<path fill-rule="evenodd" clip-rule="evenodd" d="M147.533 114.196C147.039 113.811 146.619 113.34 146.293 112.804C146.339 112.588 146.33 112.363 146.268 112.15C146.187 111.592 146.083 111.137 146.198 110.571C146.342 109.924 146.686 109.338 147.181 108.897C147.676 108.456 148.297 108.181 148.956 108.112C149.837 108.012 151.118 108.725 151.582 109.44C152.075 110.198 152.276 111.217 152.316 112.101C152.35 112.835 152.185 113.709 151.742 114.32C151.434 114.746 150.812 114.762 150.323 114.778C149.758 114.794 149.194 114.708 148.659 114.524C148.254 114.389 147.804 114.094 147.533 114.196Z" fill="#7D72B3"/>
</g>
</g>
<path style="mix-blend-mode:screen" fill-rule="evenodd" clip-rule="evenodd" d="M68.7615 146.555C63.1009 141.817 58.4595 135.981 55.1175 129.399C52.986 125.196 51.415 120.732 50.4446 116.121C50.4359 116.106 50.4325 116.089 50.435 116.073C49.6639 112.378 49.2747 108.613 49.2735 104.838C49.2744 90.4023 55.0093 76.5582 65.2168 66.3506C75.4243 56.1431 89.2685 50.4082 103.704 50.4074C104.893 50.4074 106.064 50.4457 107.235 50.5206C110.862 50.7551 114.456 51.3526 117.964 52.3043C113.623 50.8855 109.12 50.0214 104.562 49.7325C103.393 49.6559 102.222 49.6192 101.032 49.6192C93.8841 49.6167 86.8059 51.0227 80.2018 53.7569C73.5977 56.4911 67.5971 60.4999 62.543 65.5542C57.4889 70.6085 53.4803 76.6092 50.7463 83.2133C48.0123 89.8175 46.6065 96.8957 46.6092 104.043C46.6098 107.818 46.9984 111.583 47.769 115.278C47.7665 115.295 47.7699 115.312 47.7786 115.326C48.7492 119.939 50.3208 124.405 52.4532 128.61C55.9091 135.416 60.753 141.422 66.6726 146.241C72.5921 151.061 79.456 154.586 86.8215 156.59C80.2146 154.432 74.0836 151.025 68.7615 146.555Z" fill="url(#paint5_radial_1_3449)"/>
<g style="mix-blend-mode:multiply" opacity="0.4">
<path fill-rule="evenodd" clip-rule="evenodd" d="M52.9226 98.1874C52.9226 98.1874 83.3949 110.62 99.9377 109.627C116.481 108.633 123.516 99.1575 130.118 90.5055C136.72 81.8536 139.199 71.4484 139.199 71.4484C139.199 71.4484 126.672 95.6188 111.12 102.02L102.186 103.829C102.186 103.829 106.844 100.352 110.097 96.8218C113.35 93.2911 125.892 88.1539 127.058 84.0282C128.224 79.9025 128.09 73.1204 130.12 68.784C132.149 64.4477 134.174 60.866 134.174 60.866L128.795 59.9359L126.27 65.8645C126.27 65.8645 125.562 75.7273 123.631 81.0751C121.701 86.4229 102.833 101.064 98.58 103.516C94.3267 105.968 56.7564 100.791 52.9226 98.1874Z" fill="#7D72B3"/>
</g>
<g style="mix-blend-mode:soft-light">
<g style="mix-blend-mode:multiply" opacity="0.4">
<path fill-rule="evenodd" clip-rule="evenodd" d="M107.293 150.311C107.408 150.268 109.367 149.376 109.943 149.418C110.182 149.435 110.433 149.63 110.613 149.737C111.138 150.031 111.476 150.468 111.411 151.079C111.326 151.953 110.37 153.095 109.322 153.472C108.024 153.95 106.655 153.347 106.194 152.491C105.732 151.634 106.913 150.026 108.218 149.997L107.293 150.311Z" fill="#7D72B3"/>
</g>
<path fill-rule="evenodd" clip-rule="evenodd" d="M81.791 96.1527C81.0731 97.3796 79.2719 99.6276 79.8159 101.384C80.0504 102.136 80.5849 102.917 80.9216 103.627C81.8421 105.575 83.696 107.531 86.0013 106.122C88.5875 104.541 87.4643 101.655 86.3699 99.5574C85.963 98.7756 85.3664 97.812 84.5543 97.3716C84.0302 97.1059 83.4742 96.9086 82.8999 96.7845C82.0383 96.6138 82.6494 96.0602 81.791 96.1464V96.1527Z" fill="#FF9F84"/>
<path fill-rule="evenodd" clip-rule="evenodd" d="M99.2054 56.0967C99.1037 56.7249 99.0855 57.3638 99.1512 57.9968C99.3538 57.957 99.5037 58.142 99.7143 58.1388C99.9908 58.1054 100.255 58.0046 100.483 57.8453C100.887 57.5693 101.094 56.9997 101.093 56.5323C101.091 56.0648 101.045 55.6324 100.585 55.3644C100.037 55.0453 99.4894 55.2735 99.2054 55.8064V56.0967Z" fill="#FFEF84"/>
<path fill-rule="evenodd" clip-rule="evenodd" d="M87.7425 115.308C87.8462 114.906 88.0041 113.811 88.3344 113.331C88.6056 112.934 89.1082 112.711 89.5437 112.567C90.501 112.248 91.4805 112.291 92.2416 112.977C93.5753 114.18 93.5291 115.976 92.2543 117.208C91.6768 117.768 90.8823 118.334 90.0527 118.368C89.6442 118.384 89.1066 118.432 88.7556 118.224C88.3223 117.956 87.9991 117.542 87.8446 117.056C87.6085 116.283 87.7553 115.696 88.1781 115.018L87.7425 115.308Z" fill="#FF9F84"/>
<path fill-rule="evenodd" clip-rule="evenodd" d="M77.7274 114.725C77.7274 115.331 77.3748 116.756 78.2475 117.037C78.6687 117.174 79.1154 116.613 79.184 116.255C79.2528 115.84 79.2144 115.414 79.0723 115.017C78.8585 114.527 78.4342 114.186 78.0178 114.725H77.7274Z" fill="#FF9F84"/>
<path fill-rule="evenodd" clip-rule="evenodd" d="M54.5065 104.13C54.5815 105.087 54.5767 106.491 55.1591 107.373C55.4016 107.74 55.6377 108.118 56.1035 108.2C56.5104 108.271 56.7417 108.027 56.9746 107.721C57.383 107.188 57.4389 106.823 57.415 106.154C57.3795 105.533 57.2165 104.925 56.9363 104.369C56.7417 103.981 56.4083 103.696 56.0987 103.393C55.8211 103.121 55.6201 103.061 55.2245 103.102C54.698 103.158 54.7331 103.792 54.6469 104.267L54.5065 104.13Z" fill="#FF9F84"/>
<path fill-rule="evenodd" clip-rule="evenodd" d="M135.196 99.6348C135.21 99.5454 135.319 97.9341 135.617 97.5719C135.743 97.4124 136.034 97.3182 136.206 97.2337C136.712 96.9848 137.259 96.9146 137.779 97.1587C138.524 97.5129 139.108 98.5371 138.966 99.3619C138.791 100.386 137.626 101.091 136.645 101.104C135.664 101.117 134.767 99.7847 135.341 98.9088L135.196 99.6348Z" fill="#FF9F84"/>
<path fill-rule="evenodd" clip-rule="evenodd" d="M79.2344 112.557C79.2344 112.512 79.295 111.707 79.445 111.526C79.5314 111.452 79.6309 111.395 79.7385 111.357C79.8576 111.29 79.9907 111.252 80.1273 111.245C80.2638 111.238 80.4 111.264 80.5251 111.319C80.7215 111.424 80.8826 111.584 80.9882 111.781C81.0938 111.977 81.1392 112.2 81.1186 112.421C81.0308 112.932 80.4485 113.284 79.9587 113.291C79.4689 113.297 79.019 112.632 79.3061 112.195L79.2344 112.557Z" fill="#FF9F84"/>
<path fill-rule="evenodd" clip-rule="evenodd" d="M104.027 122.504C104.027 122.458 104.088 121.654 104.238 121.472C104.325 121.399 104.424 121.341 104.532 121.303C104.651 121.236 104.784 121.198 104.92 121.191C105.057 121.185 105.193 121.21 105.318 121.265C105.515 121.37 105.676 121.53 105.781 121.726C105.887 121.923 105.932 122.145 105.912 122.367C105.824 122.879 105.242 123.232 104.752 123.238C104.262 123.245 103.812 122.579 104.099 122.141L104.027 122.504Z" fill="#FF9F84"/>
<path fill-rule="evenodd" clip-rule="evenodd" d="M120.757 78.619C120.757 78.5743 120.819 77.7686 120.968 77.5883C121.054 77.5137 121.155 77.4564 121.263 77.4192C121.382 77.3519 121.515 77.3133 121.651 77.3067C121.788 77.3001 121.924 77.3255 122.049 77.3809C122.245 77.4862 122.406 77.6469 122.511 77.843C122.617 78.0391 122.662 78.2618 122.641 78.4834C122.553 78.9939 121.971 79.3465 121.481 79.3529C120.992 79.3592 120.543 78.694 120.83 78.2568L120.757 78.619Z" fill="#FF9F84"/>
<path fill-rule="evenodd" clip-rule="evenodd" d="M86.6404 142.303C86.6404 142.259 86.701 141.453 86.851 141.271C86.9389 141.2 87.0389 141.146 87.1462 141.112C87.2652 141.044 87.3983 141.006 87.5349 140.999C87.6715 140.992 87.8077 141.018 87.9327 141.073C88.1287 141.179 88.2894 141.339 88.3947 141.535C88.5 141.731 88.5451 141.954 88.5246 142.176C88.4369 142.686 87.8545 143.039 87.3647 143.045C86.8749 143.052 86.425 142.386 86.7138 141.949L86.6404 142.303Z" fill="#FF9F84"/>
<path fill-rule="evenodd" clip-rule="evenodd" d="M131.568 113.276C130.742 113.793 130.233 114.023 129.74 114.78C129.373 115.345 128.972 115.867 128.685 116.483C128.457 116.969 128.178 117.702 128.221 118.249C128.333 119.685 130.108 118.421 130.614 117.987C131.302 117.403 131.953 116.609 132.005 115.682C132.025 115.318 132.036 114.911 131.894 114.565C131.831 114.418 131.755 114.246 131.68 114.102C131.517 113.794 131.372 113.788 131.568 113.276Z" fill="#FF9F84"/>
<path fill-rule="evenodd" clip-rule="evenodd" d="M148.984 119.513C149.048 118.883 148.729 121.16 148.858 121.259C149.071 121.275 149.284 121.275 149.496 121.259C149.779 121.216 149.855 121.074 150.077 120.903C150.53 120.553 150.859 120.349 150.875 119.729C150.889 119.215 150.798 118.904 150.292 118.749C150.072 118.682 149.965 118.589 149.725 118.663C149.233 118.803 148.892 119.216 148.697 119.655L148.984 119.513Z" fill="#FF9F84"/>
<path fill-rule="evenodd" clip-rule="evenodd" d="M102.728 56.3938C102.771 55.9662 102.556 57.5106 102.643 57.576C102.786 57.5864 102.93 57.5864 103.073 57.576C103.264 57.5473 103.315 57.45 103.465 57.3351C103.771 57.099 103.995 56.9602 104.008 56.5374C104.017 56.1896 103.955 55.979 103.613 55.8753C103.463 55.829 103.392 55.7684 103.227 55.8163C103.07 55.871 102.926 55.9595 102.806 56.0755C102.685 56.1915 102.592 56.3322 102.532 56.4879L102.728 56.3938Z" fill="#FFEF84"/>
<path fill-rule="evenodd" clip-rule="evenodd" d="M132.218 100.803C132.261 100.376 132.046 101.92 132.133 101.986C132.276 101.998 132.42 101.998 132.563 101.986C132.754 101.957 132.805 101.861 132.955 101.745C133.261 101.509 133.485 101.371 133.497 100.947C133.507 100.598 133.445 100.387 133.103 100.283C132.953 100.237 132.882 100.178 132.717 100.224C132.559 100.279 132.415 100.368 132.295 100.484C132.175 100.601 132.082 100.742 132.022 100.898L132.218 100.803Z" fill="#FFEF84"/>
<path fill-rule="evenodd" clip-rule="evenodd" d="M101.122 143.173C101.551 143.173 99.9939 143.117 99.9365 143.211C99.9404 143.354 99.9548 143.497 99.9796 143.638C100.027 143.825 100.13 143.867 100.26 144.004C100.527 144.285 100.686 144.492 101.108 144.46C101.454 144.435 101.658 144.35 101.725 143.999C101.755 143.839 101.808 143.768 101.744 143.61C101.673 143.458 101.57 143.324 101.443 143.217C101.315 143.109 101.165 143.031 101.004 142.987L101.122 143.173Z" fill="#FFEF84"/>
<path fill-rule="evenodd" clip-rule="evenodd" d="M76.3774 96.4777C76.4205 96.0501 76.2051 97.5945 76.2928 97.6599C76.4356 97.6719 76.5792 97.6719 76.722 97.6599C76.9134 97.6312 76.9645 97.5355 77.1144 97.419C77.4208 97.1829 77.6441 97.0441 77.6569 96.6213C77.6665 96.2735 77.6043 96.0629 77.2612 95.9592C77.1113 95.9129 77.0411 95.8523 76.8767 95.9002C76.7188 95.955 76.5747 96.0437 76.4545 96.16C76.3344 96.2762 76.2411 96.4174 76.1812 96.5734L76.3774 96.4777Z" fill="#FFEF84"/>
<path fill-rule="evenodd" clip-rule="evenodd" d="M100.291 138.556C100.355 137.918 100.036 140.203 100.165 140.301C100.378 140.318 100.591 140.318 100.804 140.301C101.086 140.258 101.163 140.116 101.384 139.946C101.836 139.596 102.166 139.392 102.182 138.77C102.196 138.256 102.104 137.945 101.6 137.792C101.378 137.725 101.273 137.632 101.03 137.706C100.539 137.846 100.199 138.259 100.004 138.698L100.291 138.556Z" fill="#FF9F84"/>
</g>
<path fill-rule="evenodd" clip-rule="evenodd" d="M69.8918 102.72C87.5243 105.509 86.4362 110.162 106.905 104.588C127.374 99.0138 142.024 68.2303 142.024 68.2303C142.024 68.2303 143.046 65.9521 142.183 64.612C141.838 64.0775 139.152 65.1863 139.152 65.1863C139.614 75.0667 125.789 95.4688 110.171 101.345C108.504 101.972 106.821 102.189 105.254 102.543C104.519 102.173 102.701 100.505 111.259 94.7094C121.31 87.8906 125.844 85.3459 124.913 78.2575C123.981 71.1691 132.93 59.9374 132.93 59.9374C132.93 59.9374 133.577 56.9492 131.886 55.0874C129.709 52.6943 124.913 55.1257 124.913 55.1257C124.913 55.1257 123.668 69.0217 106.036 76.5313C88.4034 84.0409 78.606 80.3124 71.859 78.2575C65.112 76.2026 63.1002 65.0284 63.1002 65.0284C63.1002 65.0284 57.387 63.843 55.3146 67.4853C53.791 70.1624 56.0006 73.4888 56.0006 73.4888C56.0006 73.4888 66.634 77.3433 76.2129 81.0176C85.7917 84.6918 104.077 81.4005 110.607 78.2575C117.137 75.1145 117.137 70.097 122.362 65.5309C124.215 63.9132 126.285 62.5607 128.51 61.5121C128.51 61.5121 122.797 70.3251 123.45 76.5313C124.102 82.7374 120.186 82.5156 110.607 93.4011C103.885 101.04 98.0189 103.452 95.1105 104.226C87.7333 104.894 81.0358 104.066 71.859 101.578C57.0552 97.5619 48.1672 91.1261 48.1672 91.1261C48.1672 91.1261 46.8781 90.5134 46.3899 91.9238C46.1809 92.5236 47.5067 94.2084 47.5067 94.2084C47.5067 94.2084 52.2578 99.9247 69.8918 102.72Z" fill="url(#paint6_linear_1_3449)"/>
<path fill-rule="evenodd" clip-rule="evenodd" d="M82.2843 154.879C82.2843 154.879 77.9447 152.167 74.6789 143.791C71.4131 135.415 71.8503 135.956 65.7542 130.673C59.6582 125.391 49.0567 120.2 49.0567 120.2C49.0567 120.2 48.3404 120.445 48.3388 120.659C48.3388 121.747 49.5975 121.872 49.5975 121.872C49.5975 121.872 59.4891 126.114 65.6713 132.937C71.8535 139.761 78.5271 151.868 73.7728 151.147C73.7728 151.147 74.8433 154.179 77.3465 154.879C79.8497 155.579 82.2843 154.879 82.2843 154.879Z" fill="url(#paint7_radial_1_3449)"/>
<path d="M125.62 114.325C127.641 112.165 130.087 109.258 139.991 109.201C149.896 109.143 154.988 111.326 154.988 111.326C154.988 111.326 157.025 110.753 157.244 108.103C157.307 107.346 157.176 106.586 156.863 105.893C156.551 105.201 156.068 104.599 155.459 104.145C155.357 104.973 154.356 110.418 145.947 107.191C145.947 107.109 148.922 104.41 149.565 98.9184C150.221 93.3456 152.207 85.442 152.207 85.442C152.207 85.442 153.38 83.4876 152.617 81.9098C152.367 81.3912 150.438 81.1551 150.438 81.1551C152.105 92.2655 147.9 105.651 143.327 107.191C137.778 107.259 131.011 108.224 127.943 110.246C124.174 112.739 120.395 124.009 117.971 131.943C117.362 133.909 116.121 136.045 114.535 138.183C108.472 139.641 110.387 132.369 107.769 130.129C105.151 127.889 100.151 129.094 96.888 127.896C93.6254 126.698 92.7527 124.105 89.2715 123.692C85.7904 123.279 80.2974 129.754 74.037 127.081C67.7766 124.407 46.8081 99.5757 46.8081 99.5757C46.8081 99.5757 44.916 99.121 44.5363 100.428C44.2427 101.431 46.6103 104.057 46.6103 104.057C46.6103 104.057 61.1907 126.058 75.1155 128.918C89.0402 131.779 101.677 129.102 106.031 132.883C110.385 136.664 110.696 142.671 110.696 142.717C106.17 147.519 100.851 151.651 98.3351 152.928C93.9796 155.121 86.8226 156.615 86.8226 156.615C87.799 157.741 89.7629 158.646 91.8816 159.211C94.9337 160.027 96.8865 158.488 96.8865 158.488C96.8865 158.488 95.1171 156.948 97.4273 155.018C103.31 150.125 107.478 147.987 113.581 146.54C117.279 145.665 118.383 147.337 118.911 146.803V146.816C124.599 148.619 129.103 144.357 133.996 140.434C138.889 136.511 145.152 135.953 145.152 135.953C145.152 135.953 148.399 135.407 149.241 133.973C150.009 132.666 148.196 131.243 148.196 131.243C148.196 131.243 145.428 132.381 140.219 135.023C135.01 137.665 129.398 145.351 123.021 145.11C119.511 144.984 120.24 141.422 119.907 140.916C119.907 140.664 119.919 140.41 119.907 140.158V140.147C119.804 137.562 119.268 135.219 119.268 133.346C119.262 132.894 119.304 132.443 119.394 132.001C119.961 129.215 123.597 116.485 125.62 114.325ZM114.52 138.199C113.353 139.754 112.095 141.239 110.752 142.645L114.52 138.199ZM119.404 142.047C119.484 142.645 119.599 143.231 119.508 143.829C119.473 144.139 119.415 144.392 119.117 144.494C118.945 144.552 118.748 144.576 118.576 144.622C118.309 144.707 118.036 144.776 117.761 144.828C117.321 144.86 116.88 144.864 116.44 144.839C115.969 144.864 115.497 144.86 115.026 144.828C114.808 144.794 114.589 144.748 114.372 144.713C114.155 144.678 113.854 144.667 113.659 144.553C113.188 144.29 112.912 143.796 112.557 143.681C112.59 143.268 112.568 142.899 112.74 142.532C112.786 142.395 112.833 142.256 112.866 142.119C112.946 141.885 113.038 141.655 113.142 141.43C113.373 140.844 113.665 140.285 114.015 139.762C114.187 139.499 114.359 139.234 114.52 138.965C114.73 138.681 114.969 138.419 115.234 138.185C115.579 137.809 115.977 137.487 116.416 137.227C116.773 137.031 117.348 136.757 117.75 136.908C118.152 137.06 118.335 137.586 118.496 137.955C118.591 138.229 118.668 138.508 118.726 138.792C118.817 139.15 118.978 139.471 119.059 139.839C119.15 140.241 119.15 140.654 119.232 141.056C119.3 141.382 119.347 141.715 119.404 142.047Z" fill="url(#paint8_linear_1_3449)"/>
<path fill-rule="evenodd" clip-rule="evenodd" d="M57.4178 66.291C57.4178 66.291 59.8747 71.3404 66.1926 75.8905C66.1926 75.8905 64.0978 68.566 62.5869 65.5204C62.5837 65.5236 60.5129 63.5708 57.4178 66.291Z" fill="#FFFF0E"/>
<path fill-rule="evenodd" clip-rule="evenodd" d="M90.5234 81.6955C90.5234 81.6955 94.8182 79.9661 96.1504 80.6122C96.1504 80.6122 92.039 81.7497 90.5234 81.6955Z" fill="#FFFF0E"/>
<path fill-rule="evenodd" clip-rule="evenodd" d="M104.883 77.7211C105.655 77.4722 106.442 77.2425 107.198 76.9474C107.862 76.6854 108.508 76.3789 109.131 76.03C109.93 75.5933 110.695 75.0962 111.418 74.5431C111.604 74.3995 111.818 74.307 112.01 74.1745C112.234 74.015 112.453 73.8411 112.672 73.6784C112.865 73.5332 113.019 73.3322 113.204 73.1742C113.39 73.0163 113.578 72.8551 113.771 72.7115C114.098 72.4595 114.436 72.1819 114.736 71.8979C114.881 71.7591 115.02 71.6139 115.173 71.4847C115.27 71.4145 115.378 71.3606 115.492 71.3251C115.539 71.424 115.419 71.6586 115.379 71.7543C115.278 71.9479 115.164 72.1345 115.038 72.3127C114.781 72.7514 114.36 73.0306 114.047 73.4295C113.824 73.6855 113.563 73.9065 113.275 74.0852C112.87 74.3454 112.451 74.5819 112.019 74.7936C111.593 75.0153 111.14 75.1493 110.724 75.3918C110.307 75.6343 109.926 75.8003 109.524 75.9885C109.256 76.1292 108.996 76.2848 108.745 76.4544L108.091 76.8453C107.772 77.0399 107.453 77.2281 107.115 77.4084C106.936 77.5026 106.754 77.5791 106.577 77.6765C106.174 77.912 105.719 78.0431 105.253 78.0578C105.091 78.0747 104.928 78.0562 104.774 78.0035C104.709 77.9732 104.573 77.9349 104.567 77.852C104.675 77.8312 104.773 77.6892 104.883 77.7211Z" fill="#FFFF0E"/>
<path fill-rule="evenodd" clip-rule="evenodd" d="M116.474 70.2622C116.276 70.3618 116.098 70.499 115.952 70.6663C115.952 70.7856 115.886 70.9224 116.094 70.916C116.197 70.9049 116.296 70.8724 116.385 70.8206C116.474 70.7688 116.552 70.6989 116.613 70.6154C116.683 70.5358 116.831 70.2972 116.743 70.1843C116.636 70.0411 116.344 70.2384 116.258 70.3163L116.474 70.2622Z" fill="#FFFF0E"/>
<path fill-rule="evenodd" clip-rule="evenodd" d="M125.671 55.4615C125.478 55.6774 125.313 55.9171 125.181 56.1747C125.104 56.3693 125.036 56.5703 124.961 56.7666C124.816 57.1527 124.733 57.5515 124.61 57.9424C124.386 58.6571 124.214 59.3783 123.928 60.0787C123.801 60.3977 123.645 60.6945 123.493 60.9992C123.413 61.1587 123.29 61.3103 123.219 61.4778C123.147 61.6453 123.069 61.749 123.002 61.8942C122.958 62.0338 122.9 62.1685 122.829 62.2963C122.733 62.4396 122.646 62.5894 122.569 62.7446C122.497 62.8722 122.218 63.1865 122.303 63.3508C122.389 63.3652 122.47 63.2344 122.521 63.1913C122.681 63.0318 122.856 62.9041 123.019 62.751C123.322 62.4654 123.589 62.1415 123.877 61.84C124.002 61.7092 124.086 61.5544 124.197 61.4156C124.356 61.2146 124.548 61.0534 124.702 60.846C124.953 60.511 125.229 60.1903 125.5 59.8776C125.64 59.7181 125.738 59.5362 125.875 59.3751C126.012 59.2139 126.143 59.0975 126.274 58.9555C126.684 58.504 127.118 58.0716 127.513 57.6074C127.831 57.2339 128.126 56.8418 128.397 56.4331C128.613 56.1141 128.804 55.795 128.999 55.452C129.078 55.3179 129.252 54.9941 129.192 54.8282C129.114 54.6176 128.873 54.5314 128.667 54.5091C128.337 54.4577 128.002 54.4647 127.675 54.5298C127.351 54.6164 127.035 54.729 126.73 54.8664C126.448 54.9845 126.218 55.1855 125.947 55.3275C125.76 55.4089 125.54 55.495 125.671 55.4615Z" fill="#FFFF0E"/>
<path fill-rule="evenodd" clip-rule="evenodd" d="M128.501 61.9923C128.407 62.2279 128.295 62.4557 128.165 62.6735C128.042 62.8442 127.927 63.0022 127.82 63.184C127.635 63.5031 127.458 63.8222 127.275 64.1413C126.941 64.7188 126.523 65.2581 126.268 65.8739C126.167 66.118 126.062 66.3525 125.949 66.5918C125.841 66.8448 125.75 67.1049 125.678 67.3704C125.605 67.6264 125.546 67.8864 125.502 68.1489C125.454 68.3611 125.355 68.5622 125.416 68.7871C125.625 68.5175 125.772 68.216 125.963 67.9336C126.079 67.7271 126.22 67.5362 126.384 67.3656C126.558 67.2015 126.721 67.0273 126.874 66.8439C127.039 66.6691 127.186 66.4783 127.313 66.2743C127.425 66.0829 127.493 65.8835 127.624 65.7016C127.755 65.5197 127.831 65.3346 127.943 65.1576C128.084 64.9543 128.202 64.736 128.294 64.5066C128.454 64.0615 128.613 63.5909 128.73 63.1346C128.794 62.8977 128.812 62.6508 128.784 62.4071C128.744 62.2252 128.465 61.7354 128.501 61.9923Z" fill="#FFFF0E"/>
<path fill-rule="evenodd" clip-rule="evenodd" d="M124.744 69.4495C124.66 69.7383 124.548 70.0638 124.483 70.3637C124.467 70.4387 124.441 70.5966 124.502 70.6445C124.562 70.6924 124.736 70.6253 124.787 70.5775C124.842 70.5172 124.887 70.4488 124.921 70.3749C125.035 70.2161 125.089 70.0222 125.073 69.8276C125.028 69.633 124.848 69.4655 124.69 69.6681L124.744 69.4495Z" fill="#FFFF0E"/>
<path fill-rule="evenodd" clip-rule="evenodd" d="M119.032 85.2297C118.419 85.8184 117.71 86.3369 117.21 87.0309C117.162 87.0979 116.91 87.3867 116.972 87.5096C117.035 87.6324 117.327 87.5542 117.419 87.5239C117.778 87.3882 118.128 87.2283 118.466 87.0453C118.719 86.9088 118.964 86.7592 119.201 86.597C119.753 86.2236 120.247 85.7703 120.666 85.252C120.865 85.038 121.027 84.7921 121.144 84.5245C121.173 84.4496 121.288 84.2342 121.261 84.1448C121.172 83.8465 120.463 84.164 120.315 84.2549C120.151 84.3746 119.994 84.5029 119.844 84.6394C119.721 84.7402 119.592 84.8344 119.458 84.9218C119.346 84.9968 119.241 85.0957 119.139 85.1787C119.037 85.2616 118.949 85.4531 119.032 85.2297Z" fill="#FFFF0E"/>
<path fill-rule="evenodd" clip-rule="evenodd" d="M116.257 88.0596C116.047 88.1566 115.84 88.2568 115.635 88.3586C115.635 88.4541 115.378 88.6291 115.505 88.7563C115.575 88.8263 115.807 88.734 115.875 88.7118C116.008 88.6523 116.125 88.563 116.217 88.4509C116.33 88.3427 116.319 88.2998 116.257 88.1677V88.0596Z" fill="#FFFF0E"/>
<path fill-rule="evenodd" clip-rule="evenodd" d="M102.181 101.522C101.678 101.904 101.144 102.245 100.586 102.541C99.9314 102.887 99.231 103.152 98.5849 103.516C97.5814 104.084 96.5188 104.511 95.4675 104.977C95.2999 105.051 93.754 105.657 94.3379 105.967C94.6075 106.11 94.8771 106.081 95.1707 106.089C95.4116 106.089 95.6493 106.16 95.8855 106.169C96.1216 106.179 96.3784 106.169 96.6257 106.169C97.9149 106.164 99.1891 105.892 100.369 105.371C100.649 105.276 100.919 105.155 101.177 105.011C101.321 104.899 101.457 104.777 101.583 104.646C101.83 104.411 102.033 104.135 102.183 103.829C102.421 103.415 102.546 102.946 102.545 102.469C102.542 102.273 102.475 102.084 102.353 101.93C102.25 101.81 102.127 101.777 102.181 101.522Z" fill="#FFFF0E"/>
<path fill-rule="evenodd" clip-rule="evenodd" d="M93.183 105.366C92.9006 105.227 92.5831 105.013 92.2752 105C92.1677 104.998 92.0604 105.011 91.9561 105.037C91.72 105.086 91.3467 105.115 91.1664 105.294C90.892 105.567 91.4855 105.784 91.6977 105.838C91.9967 105.9 92.3039 105.913 92.607 105.876C92.8288 105.847 93.2723 105.654 93.2707 105.378L93.3298 105.366H93.183Z" fill="#FFFF0E"/>
<path fill-rule="evenodd" clip-rule="evenodd" d="M109.872 101.882C111.038 101.521 112.17 101.059 113.254 100.5C113.679 100.287 114.098 100.046 114.502 99.7936C114.764 99.6341 115.025 99.4203 115.3 99.2831C115.413 99.2257 116.097 98.8284 116.185 99.0183C116.306 99.264 115.566 99.7554 115.461 99.8495C115.176 100.084 114.878 100.304 114.569 100.507C114.312 100.689 114.028 100.78 113.759 100.934C113.405 101.138 113.039 101.32 112.663 101.477C112.384 101.61 112.096 101.722 111.801 101.812C111.576 101.871 111.351 101.962 111.125 102.013C110.955 102.051 110.785 102.002 110.616 102.043C110.407 102.094 110.014 102.196 109.872 101.882Z" fill="#FFFF0E"/>
<path fill-rule="evenodd" clip-rule="evenodd" d="M135.523 108.197C136.092 108.197 136.777 108.256 137.365 108.173C137.793 108.111 138.221 108.014 138.642 107.979C139.489 107.901 140.32 107.682 141.172 107.65C141.509 107.637 141.848 107.65 142.187 107.65C142.395 107.63 142.605 107.63 142.814 107.65C142.942 107.692 143.061 107.757 143.166 107.842C143.37 108.062 143.166 108.03 143.032 108.11C142.759 108.288 142.457 108.419 142.14 108.497C141.608 108.609 141.079 108.754 140.545 108.831C140.172 108.885 139.798 108.818 139.428 108.877C138.94 108.946 138.447 108.974 137.954 108.962H136.729C136.438 108.951 136.148 108.918 135.862 108.863C135.606 108.828 135.452 108.877 135.237 108.757C135.137 108.7 134.975 108.545 135.523 108.197Z" fill="#FFFF0E"/>
<path fill-rule="evenodd" clip-rule="evenodd" d="M149.236 108.739C149.965 108.805 150.415 108.899 151.072 108.77C151.503 108.688 151.937 108.618 152.367 108.548C153.012 108.425 153.627 108.176 154.175 107.814C154.47 107.624 155.065 107.211 155.451 107.319C155.619 107.378 155.768 107.48 155.884 107.616C155.999 107.751 156.076 107.915 156.107 108.09C156.136 108.497 155.678 108.83 155.397 109.047C154.909 109.435 154.18 109.575 153.572 109.61C152.836 109.641 152.1 109.566 151.386 109.387C151.166 109.338 150.946 109.272 150.726 109.227C150.528 109.186 150.126 109.237 149.236 108.739Z" fill="#FFFF0E"/>
<path fill-rule="evenodd" clip-rule="evenodd" d="M150.87 81.8565C150.826 82.3511 150.518 83.5764 151.14 83.9752C151.472 84.1874 151.63 83.629 151.635 83.3769C151.642 83.0148 151.41 82.0623 150.98 81.965L150.87 81.8565Z" fill="#FFFF0E"/>
<path fill-rule="evenodd" clip-rule="evenodd" d="M48.2658 93.1049C48.7827 93.767 49.164 94.4562 49.8804 94.8742C50.2984 95.1167 50.7036 95.4007 51.1711 95.5411C51.6066 95.6735 52.1666 95.8219 52.6213 95.7198C52.867 95.6639 52.9324 95.7469 52.9196 95.4294C52.8937 95.2705 52.8303 95.1201 52.7345 94.9907C52.5862 94.7657 52.358 94.6205 52.1841 94.4179C51.9767 94.1786 51.8555 93.9489 51.6034 93.7526C50.769 93.0985 49.9905 92.5561 48.9806 92.2306C48.6168 92.1126 48.5913 92.0711 48.2706 92.2705C48.0169 92.43 48.0074 92.3646 47.9707 92.663C47.9212 93.0602 48.2084 93.3745 48.411 93.6856L48.2658 93.1049Z" fill="#FFFF0E"/>
<path fill-rule="evenodd" clip-rule="evenodd" d="M48.7013 103.837C49.5559 105.165 50.5022 106.432 51.5332 107.628C52.2559 108.491 52.693 109.579 53.5194 110.372C53.655 110.503 55.1021 111.747 55.0861 111.029C55.0861 110.87 54.6729 110.222 54.5836 110.072C54.3453 109.666 54.0787 109.277 53.7859 108.909C53.5241 108.623 53.2805 108.322 53.0567 108.006C52.855 107.697 52.6254 107.408 52.3708 107.141C52.0198 106.752 51.8331 106.264 51.5236 105.846C51.2364 105.459 50.9428 105.093 50.6652 104.7C50.2935 104.174 49.909 103.583 49.3187 103.362C49.1592 103.304 48.9279 103.133 48.7316 103.277C48.4125 103.518 48.663 104.306 48.7013 103.837Z" fill="#FFFF0E"/>
<path fill-rule="evenodd" clip-rule="evenodd" d="M101.091 129.384C102.307 129.167 103.291 128.974 104.488 129.255C105.075 129.392 105.665 129.574 106.243 129.747C106.614 129.858 107.179 129.967 107.449 130.244C107.718 130.522 107.634 131.058 107.375 131.315C107.023 131.666 106.238 131.589 105.797 131.548C104.904 131.486 104.019 131.332 103.157 131.088C102.664 130.94 101.975 130.694 101.562 130.367C101.369 130.217 100.872 129.801 101.091 129.384Z" fill="#FFFF0E"/>
<path fill-rule="evenodd" clip-rule="evenodd" d="M117.783 135.912C117.167 135.776 117.116 134.677 117.287 134.238C117.383 133.99 117.539 133.589 117.815 133.474C118.091 133.359 118.196 133.556 118.436 133.642C118.181 134.191 117.864 134.709 117.493 135.186L117.783 135.912Z" fill="#FFFF0E"/>
<path fill-rule="evenodd" clip-rule="evenodd" d="M140.711 135.479C141.521 134.951 142.07 134.581 142.954 134.318C143.402 134.184 143.865 134.128 144.313 133.999C144.838 133.839 145.368 133.59 145.909 133.483C146.105 133.444 146.295 133.455 146.486 133.423C146.703 133.385 146.598 133.278 146.845 133.412C147.3 133.661 147.093 133.996 146.797 134.246C146.236 134.725 145.757 134.913 145.028 135.084C144.621 135.178 144.297 135.403 143.911 135.529C143.675 135.602 143.433 135.642 143.189 135.706C142.294 135.934 141.201 135.77 140.711 135.479Z" fill="#FFFF0E"/>
<path fill-rule="evenodd" clip-rule="evenodd" d="M67.5667 133.593C68.0773 134.647 68.5048 135.667 69.1717 136.61C69.47 137.037 69.6966 137.452 70.18 137.658C70.5629 137.817 70.8182 137.883 70.8756 137.361C70.9027 137.092 70.6794 136.702 70.531 136.439C70.1034 135.676 69.494 135.016 68.9866 134.319C68.7761 134.011 68.5309 133.728 68.2559 133.476C68.0709 133.325 67.5221 133.157 67.5667 133.593Z" fill="#FFFF0E"/>
<path fill-rule="evenodd" clip-rule="evenodd" d="M88.9016 156.811C90.0776 156.543 91.2321 156.189 92.3556 155.751C92.8342 155.576 93.3129 155.576 93.8027 155.472C93.8489 155.462 93.9016 155.368 93.9702 155.352C94.1187 155.336 94.2684 155.336 94.4169 155.352C94.5445 155.352 95.0997 155.279 95.2146 155.352C95.6677 155.686 94.6993 156.566 94.4903 156.788C94.0604 157.213 93.5429 157.538 92.9741 157.742C92.4054 157.945 91.799 158.022 91.1973 157.967C90.6039 157.907 90.0646 157.591 89.4887 157.525C89.1201 157.484 88.3081 157.347 88.3448 156.823C88.5298 156.806 88.7159 156.801 88.9016 156.811Z" fill="#FFFF0E"/>
<path fill-rule="evenodd" clip-rule="evenodd" d="M109.946 144.476C108.861 145.215 107.666 145.856 106.887 146.946C106.351 147.699 107.332 147.544 107.766 147.38C108.106 147.259 108.428 147.092 108.724 146.885C108.97 146.695 109.198 146.482 109.403 146.247C109.576 146.073 109.794 145.928 109.95 145.746C110.107 145.564 110.174 145.14 110.362 145.014C110.328 144.928 110.288 144.844 110.242 144.764L109.946 144.476Z" fill="#FFFF0E"/>
<path fill-rule="evenodd" clip-rule="evenodd" d="M80.3381 127.785C81.1278 127.452 81.9128 127.171 82.6499 126.775C83.3359 126.408 83.9948 126.029 84.6952 125.681C85.5918 125.236 86.5602 124.614 87.5988 124.59C87.9913 124.58 88.2498 124.39 88.6103 124.555C88.8844 124.652 89.1239 124.828 89.2996 125.06C89.8292 125.813 88.7794 126.538 88.2035 126.925C87.7632 127.222 87.3611 127.586 86.8682 127.793C86.2922 128.036 85.6732 128.146 85.0908 128.361C84.1256 128.72 83.1014 129.117 82.0723 129.243C81.5563 129.286 81.042 129.142 80.6237 128.837C80.3983 128.695 80.2028 128.511 80.0478 128.294C79.9122 128.093 79.8276 127.765 80.3381 127.785Z" fill="#FFFF0E"/>
<path style="mix-blend-mode:screen" d="M104.735 112.005C114.584 107.883 120.425 99.4225 117.782 93.1078C115.14 86.7931 105.013 85.0155 95.1644 89.1373C85.3156 93.2592 79.474 101.72 82.1168 108.034C84.7596 114.349 94.886 116.127 104.735 112.005Z" fill="url(#paint9_radial_1_3449)"/>
<path style="mix-blend-mode:screen" d="M72.4448 76.9018C76.2499 71.2113 73.8629 62.9396 67.1134 58.4262C60.3638 53.9129 51.8076 54.8672 48.0025 60.5576C44.1974 66.248 46.5843 74.5198 53.3339 79.0331C60.0835 83.5464 68.6397 82.5922 72.4448 76.9018Z" fill="url(#paint10_radial_1_3449)"/>
<path style="mix-blend-mode:screen" d="M164.377 115.056C167.809 109.924 165.655 102.463 159.566 98.3912C153.477 94.3196 145.759 95.1795 142.327 100.312C138.895 105.444 141.049 112.905 147.138 116.977C153.227 121.048 160.945 120.188 164.377 115.056Z" fill="url(#paint11_radial_1_3449)"/>
<path style="mix-blend-mode:screen" d="M87.924 160.258C91.3559 155.125 89.202 147.664 83.1131 143.593C77.0242 139.521 69.3061 140.381 65.8742 145.513C62.4423 150.646 64.5962 158.107 70.6851 162.178C76.774 166.25 84.4921 165.39 87.924 160.258Z" fill="url(#paint12_radial_1_3449)"/>
</g>
<path d="M113.469 97.25V102.547H88.8828L88.5547 98.4453L102.781 75.875H108.148L102.336 85.6016L95.2578 97.25H113.469ZM109.602 75.875V110H102.852V75.875H109.602Z" fill="white"/>
<g filter="url(#filter0_b_1_3449)">
<rect x="77" y="118" width="49" height="22" rx="11" fill="white" fill-opacity="0.3"/>
<path d="M89.3379 123.5V134H88.0664V123.5H89.3379ZM94.4375 134.137C93.9225 134.137 93.4554 134.05 93.0361 133.877C92.6214 133.699 92.2637 133.451 91.9629 133.132C91.6667 132.813 91.4388 132.435 91.2793 131.997C91.1198 131.56 91.04 131.081 91.04 130.562V130.274C91.04 129.673 91.1289 129.137 91.3066 128.668C91.4844 128.194 91.7259 127.793 92.0312 127.465C92.3366 127.137 92.6829 126.888 93.0703 126.72C93.4577 126.551 93.8587 126.467 94.2734 126.467C94.8021 126.467 95.2578 126.558 95.6406 126.74C96.028 126.923 96.3447 127.178 96.5908 127.506C96.8369 127.829 97.0192 128.212 97.1377 128.654C97.2562 129.092 97.3154 129.57 97.3154 130.09V130.657H91.792V129.625H96.0508V129.529C96.0326 129.201 95.9642 128.882 95.8457 128.572C95.7318 128.262 95.5495 128.007 95.2988 127.807C95.0482 127.606 94.7064 127.506 94.2734 127.506C93.9863 127.506 93.722 127.567 93.4805 127.69C93.2389 127.809 93.0316 127.987 92.8584 128.224C92.6852 128.461 92.5508 128.75 92.4551 129.092C92.3594 129.434 92.3115 129.828 92.3115 130.274V130.562C92.3115 130.912 92.3594 131.243 92.4551 131.553C92.5553 131.858 92.6989 132.127 92.8857 132.359C93.0771 132.592 93.3073 132.774 93.5762 132.906C93.8496 133.038 94.1595 133.104 94.5059 133.104C94.9525 133.104 95.3307 133.013 95.6406 132.831C95.9505 132.649 96.2217 132.405 96.4541 132.1L97.2197 132.708C97.0602 132.95 96.8574 133.18 96.6113 133.398C96.3652 133.617 96.0622 133.795 95.7021 133.932C95.3467 134.068 94.9251 134.137 94.4375 134.137ZM100.945 132.858L102.969 126.604H104.261L101.602 134H100.754L100.945 132.858ZM99.2568 126.604L101.342 132.893L101.485 134H100.638L97.958 126.604H99.2568ZM108.451 134.137C107.936 134.137 107.469 134.05 107.05 133.877C106.635 133.699 106.277 133.451 105.977 133.132C105.68 132.813 105.452 132.435 105.293 131.997C105.133 131.56 105.054 131.081 105.054 130.562V130.274C105.054 129.673 105.143 129.137 105.32 128.668C105.498 128.194 105.74 127.793 106.045 127.465C106.35 127.137 106.697 126.888 107.084 126.72C107.471 126.551 107.872 126.467 108.287 126.467C108.816 126.467 109.271 126.558 109.654 126.74C110.042 126.923 110.358 127.178 110.604 127.506C110.851 127.829 111.033 128.212 111.151 128.654C111.27 129.092 111.329 129.57 111.329 130.09V130.657H105.806V129.625H110.064V129.529C110.046 129.201 109.978 128.882 109.859 128.572C109.745 128.262 109.563 128.007 109.312 127.807C109.062 127.606 108.72 127.506 108.287 127.506C108 127.506 107.736 127.567 107.494 127.69C107.253 127.809 107.045 127.987 106.872 128.224C106.699 128.461 106.564 128.75 106.469 129.092C106.373 129.434 106.325 129.828 106.325 130.274V130.562C106.325 130.912 106.373 131.243 106.469 131.553C106.569 131.858 106.713 132.127 106.899 132.359C107.091 132.592 107.321 132.774 107.59 132.906C107.863 133.038 108.173 133.104 108.52 133.104C108.966 133.104 109.344 133.013 109.654 132.831C109.964 132.649 110.235 132.405 110.468 132.1L111.233 132.708C111.074 132.95 110.871 133.18 110.625 133.398C110.379 133.617 110.076 133.795 109.716 133.932C109.36 134.068 108.939 134.137 108.451 134.137ZM114.18 123.5V134H112.908V123.5H114.18Z" fill="white"/>
</g>
<circle cx="101" cy="105" r="100" stroke="white" stroke-opacity="0.1"/>
<g filter="url(#filter1_d_1_3449)">
<path d="M101 5C124.162 5 146.607 13.0406 164.5 27.7488C182.393 42.457 194.626 62.9205 199.109 85.645C203.592 108.37 200.048 131.946 189.081 152.347C178.114 172.749 160.405 188.711 138.978 197.508" stroke="white" stroke-width="2" stroke-linecap="round"/>
</g>
<g filter="url(#filter2_d_1_3449)">
<circle cx="139" cy="197" r="4" fill="white"/>
<circle cx="139" cy="197" r="3.5" stroke="white"/>
</g>
<defs>
<filter id="filter0_b_1_3449" x="47" y="88" width="109" height="82" filterUnits="userSpaceOnUse" color-interpolation-filters="sRGB">
<feFlood flood-opacity="0" result="BackgroundImageFix"/>
<feGaussianBlur in="BackgroundImageFix" stdDeviation="15"/>
<feComposite in2="SourceAlpha" operator="in" result="effect1_backgroundBlur_1_3449"/>
<feBlend mode="normal" in="SourceGraphic" in2="effect1_backgroundBlur_1_3449" result="shape"/>
</filter>
<filter id="filter1_d_1_3449" x="96" y="0" width="110" height="202.508" filterUnits="userSpaceOnUse" color-interpolation-filters="sRGB">
<feFlood flood-opacity="0" result="BackgroundImageFix"/>
<feColorMatrix in="SourceAlpha" type="matrix" values="0 0 0 0 0 0 0 0 0 0 0 0 0 0 0 0 0 0 127 0" result="hardAlpha"/>
<feOffset/>
<feGaussianBlur stdDeviation="2"/>
<feComposite in2="hardAlpha" operator="out"/>
<feColorMatrix type="matrix" values="0 0 0 0 1 0 0 0 0 1 0 0 0 0 1 0 0 0 0.49 0"/>
<feBlend mode="normal" in2="BackgroundImageFix" result="effect1_dropShadow_1_3449"/>
<feBlend mode="normal" in="SourceGraphic" in2="effect1_dropShadow_1_3449" result="shape"/>
</filter>
<filter id="filter2_d_1_3449" x="131" y="189" width="16" height="16" filterUnits="userSpaceOnUse" color-interpolation-filters="sRGB">
<feFlood flood-opacity="0" result="BackgroundImageFix"/>
<feColorMatrix in="SourceAlpha" type="matrix" values="0 0 0 0 0 0 0 0 0 0 0 0 0 0 0 0 0 0 127 0" result="hardAlpha"/>
<feOffset/>
<feGaussianBlur stdDeviation="2"/>
<feComposite in2="hardAlpha" operator="out"/>
<feColorMatrix type="matrix" values="0 0 0 0 1 0 0 0 0 1 0 0 0 0 1 0 0 0 0.49 0"/>
<feBlend mode="normal" in2="BackgroundImageFix" result="effect1_dropShadow_1_3449"/>
<feBlend mode="normal" in="SourceGraphic" in2="effect1_dropShadow_1_3449" result="shape"/>
</filter>
<radialGradient id="paint0_radial_1_3449" cx="0" cy="0" r="1" gradientUnits="userSpaceOnUse" gradientTransform="translate(101.002 105) rotate(-45) scale(80.1278)">
<stop stop-color="#FF4000"/>
<stop offset="1" stop-color="#FF4000" stop-opacity="0"/>
</radialGradient>
<radialGradient id="paint1_radial_1_3449" cx="0" cy="0" r="1" gradientUnits="userSpaceOnUse" gradientTransform="translate(101 105) scale(62.9325)">
<stop stop-color="#FF7300"/>
<stop offset="1" stop-color="#FF7300" stop-opacity="0"/>
</radialGradient>
<radialGradient id="paint2_radial_1_3449" cx="0" cy="0" r="1" gradientUnits="userSpaceOnUse" gradientTransform="translate(101.001 105) scale(60.0544)">
<stop stop-color="#FF7900"/>
<stop offset="0.18" stop-color="#FC7800"/>
<stop offset="0.32" stop-color="#F37300"/>
<stop offset="0.43" stop-color="#E36C00"/>
<stop offset="0.54" stop-color="#CC6100"/>
<stop offset="1" stop-color="#AF5300" stop-opacity="0"/>
</radialGradient>
<radialGradient id="paint3_radial_1_3449" cx="0" cy="0" r="1" gradientUnits="userSpaceOnUse" gradientTransform="translate(67.3304 78.5842) scale(87.4332 87.4332)">
<stop offset="0.01" stop-color="#DE6863"/>
<stop offset="0.2" stop-color="#DB6563"/>
<stop offset="0.35" stop-color="#D15D62"/>
<stop offset="0.49" stop-color="#C14F60"/>
<stop offset="0.62" stop-color="#A93B5E"/>
<stop offset="0.74" stop-color="#8B225B"/>
<stop offset="0.86" stop-color="#670357"/>
<stop offset="0.87" stop-color="#630057"/>
</radialGradient>
<linearGradient id="paint4_linear_1_3449" x1="46.6082" y1="89.1107" x2="124.904" y2="89.1107" gradientUnits="userSpaceOnUse">
<stop offset="0.01" stop-color="#FF7D85"/>
<stop offset="0.3" stop-color="#FC7B84"/>
<stop offset="0.51" stop-color="#F3757F"/>
<stop offset="0.7" stop-color="#E36B77"/>
<stop offset="0.87" stop-color="#CC5C6C"/>
<stop offset="1" stop-color="#B54D61"/>
</linearGradient>
<radialGradient id="paint5_radial_1_3449" cx="0" cy="0" r="1" gradientUnits="userSpaceOnUse" gradientTransform="translate(61.263 66.9964) scale(71.6419 71.6418)">
<stop stop-color="#FFFF4A"/>
<stop offset="1" stop-color="#FFFF4A" stop-opacity="0"/>
</radialGradient>
<linearGradient id="paint6_linear_1_3449" x1="46.3596" y1="80.6107" x2="142.52" y2="80.6107" gradientUnits="userSpaceOnUse">
<stop offset="0.01" stop-color="#FFB80B"/>
<stop offset="0.39" stop-color="#FFB60C"/>
<stop offset="0.58" stop-color="#FEAE10"/>
<stop offset="0.73" stop-color="#FCA117"/>
<stop offset="0.85" stop-color="#FA8E21"/>
<stop offset="0.97" stop-color="#F7762E"/>
<stop offset="1" stop-color="#F66D33"/>
</linearGradient>
<radialGradient id="paint7_radial_1_3449" cx="0" cy="0" r="1" gradientUnits="userSpaceOnUse" gradientTransform="translate(54.8002 129.512) scale(27.6453)">
<stop offset="0.01" stop-color="#FFB80B"/>
<stop offset="0.39" stop-color="#FFB60C"/>
<stop offset="0.58" stop-color="#FEAE10"/>
<stop offset="0.73" stop-color="#FCA117"/>
<stop offset="0.85" stop-color="#FA8E21"/>
<stop offset="0.97" stop-color="#F7762E"/>
<stop offset="1" stop-color="#F66D33"/>
</radialGradient>
<linearGradient id="paint8_linear_1_3449" x1="44.5076" y1="120.292" x2="157.257" y2="120.292" gradientUnits="userSpaceOnUse">
<stop offset="0.01" stop-color="#FFB80B"/>
<stop offset="0.39" stop-color="#FFB60C"/>
<stop offset="0.58" stop-color="#FEAE10"/>
<stop offset="0.73" stop-color="#FCA117"/>
<stop offset="0.85" stop-color="#FA8E21"/>
<stop offset="0.97" stop-color="#F7762E"/>
<stop offset="1" stop-color="#F66D33"/>
</linearGradient>
<radialGradient id="paint9_radial_1_3449" cx="0" cy="0" r="1" gradientUnits="userSpaceOnUse" gradientTransform="translate(101.64 99.9452) rotate(-22.71) scale(19.367 12.4088)">
<stop stop-color="#FF5B00"/>
<stop offset="0.17" stop-color="#C54600"/>
<stop offset="1" stop-color="#802E00" stop-opacity="0"/>
</radialGradient>
<radialGradient id="paint10_radial_1_3449" cx="0" cy="0" r="1" gradientUnits="userSpaceOnUse" gradientTransform="translate(61.0075 69.522) rotate(33.77) scale(14.7282 12.4088)">
<stop stop-color="#FF5B00"/>
<stop offset="0.17" stop-color="#C54600"/>
<stop offset="1" stop-color="#802E00" stop-opacity="0"/>
</radialGradient>
<radialGradient id="paint11_radial_1_3449" cx="0" cy="0" r="1" gradientUnits="userSpaceOnUse" gradientTransform="translate(154.296 108.557) rotate(33.77) scale(13.2856 11.1934)">
<stop stop-color="#FF5B00"/>
<stop offset="0.17" stop-color="#C54600"/>
<stop offset="1" stop-color="#802E00" stop-opacity="0"/>
</radialGradient>
<radialGradient id="paint12_radial_1_3449" cx="0" cy="0" r="1" gradientUnits="userSpaceOnUse" gradientTransform="translate(77.7331 153.797) rotate(33.77) scale(13.2856 11.1934)">
<stop stop-color="#FF5B00"/>
<stop offset="0.17" stop-color="#C54600"/>
<stop offset="1" stop-color="#802E00" stop-opacity="0"/>
</radialGradient>
<clipPath id="clip0_1_3449">
<rect width="160" height="160" fill="white" transform="translate(21 25)"/>
</clipPath>
</defs>
</svg>
